<svg width="48" height="51" viewBox="0 0 48 51" fill="none" xmlns="http://www.w3.org/2000/svg">
<path fill-rule="evenodd" clip-rule="evenodd" d="M24 0C25.1046 0 26 0.895431 26 2V3.08342C31.6327 3.55423 36.9435 6.00238 40.9706 10.0294C45.4714 14.5303 48 20.6348 48 27C48 31.7468 46.5924 36.3869 43.9553 40.3337C41.3181 44.2805 37.5698 47.3566 33.1844 49.1731C28.799 50.9896 23.9734 51.4649 19.3178 50.5389C14.6623 49.6128 10.3859 47.327 7.02945 43.9706C3.67299 40.6141 1.38721 36.3377 0.461164 31.6822C-0.464881 27.0266 0.010399 22.201 1.8269 17.8156C2.96339 15.0719 4.59294 12.5776 6.62029 10.4487L5.5858 9.41421C4.80475 8.63317 4.80475 7.36684 5.5858 6.58579C6.36685 5.80474 7.63317 5.80474 8.41422 6.58579L9.61625 7.78782C9.95895 7.53125 10.3091 7.28344 10.6663 7.04473C14.0566 4.77944 17.9584 3.42141 22 3.08346V2C22 0.895431 22.8954 0 24 0ZM24 7C20.0444 7 16.1776 8.17298 12.8886 10.3706C9.59962 12.5682 7.03617 15.6918 5.52242 19.3463C4.00867 23.0009 3.6126 27.0222 4.38431 30.9018C5.15601 34.7814 7.06083 38.3451 9.85788 41.1421C12.6549 43.9392 16.2186 45.844 20.0982 46.6157C23.9778 47.3874 27.9992 46.9913 31.6537 45.4776C35.3082 43.9638 38.4318 41.4004 40.6294 38.1114C42.827 34.8224 44 30.9556 44 27C44 21.6957 41.8929 16.6086 38.1421 12.8579C34.3914 9.10714 29.3043 7 24 7ZM24 10C25.1046 10 26 10.8954 26 12V21.3414C28.3304 22.1651 30 24.3876 30 27C30 30.3137 27.3137 33 24 33C20.6863 33 18 30.3137 18 27C18 24.3876 19.6696 22.1651 22 21.3414V12C22 10.8954 22.8954 10 24 10ZM24 25C22.8954 25 22 25.8954 22 27C22 28.1046 22.8954 29 24 29C25.1046 29 26 28.1046 26 27C26 25.8954 25.1046 25 24 25Z" fill="white"/>
</svg>
